<?xml version="1.0" standalone="no"?>
<!DOCTYPE svg PUBLIC "-//W3C//DTD SVG 20010904//EN"
 "http://www.w3.org/TR/2001/REC-SVG-20010904/DTD/svg10.dtd">
<svg version="1.0" xmlns="http://www.w3.org/2000/svg"
 width="778.000000pt" height="778.000000pt" viewBox="0 0 778.000000 778.000000"
 preserveAspectRatio="xMidYMid meet">
<metadata>
Created by potrace 1.14, written by Peter Selinger 2001-2017
</metadata>
<g transform="translate(0.000000,778.000000) scale(0.100000,-0.100000)"
fill="#000000" stroke="none">
<path d="M1909 5856 c-3 -3 -41 -10 -85 -16 -79 -10 -97 -14 -229 -46 -77 -18
-200 -57 -255 -81 -335 -144 -594 -330 -810 -584 -103 -121 -135 -161 -138
-176 -2 -7 -7 -13 -10 -13 -4 0 -13 -13 -20 -28 -6 -16 -20 -37 -30 -48 -24
-26 -182 -351 -182 -373 0 -9 -23 -88 -48 -161 -8 -25 -19 -65 -23 -90 -4 -25
-13 -67 -19 -95 -21 -94 -32 -389 -21 -535 14 -178 32 -292 61 -380 10 -30 21
-68 25 -85 7 -33 80 -229 96 -257 5 -10 9 -25 9 -33 0 -8 5 -15 10 -15 6 0 10
-7 10 -15 0 -8 3 -15 8 -15 8 0 32 -49 32 -67 0 -7 5 -13 10 -13 6 0 10 -7 10
-15 0 -8 5 -15 10 -15 6 0 10 -7 10 -15 0 -8 5 -15 10 -15 6 0 10 -7 10 -15 0
-8 5 -15 10 -15 6 0 10 -7 10 -15 0 -8 5 -15 10 -15 6 0 10 -7 10 -15 0 -8 5
-15 10 -15 6 0 10 -7 10 -15 0 -8 4 -15 8 -15 4 0 15 -12 25 -28 9 -15 30 -43
47 -62 43 -50 46 -54 49 -65 2 -5 17 -21 34 -35 44 -37 127 -119 127 -126 0
-7 27 -31 60 -54 13 -8 41 -32 64 -52 22 -20 53 -42 69 -49 15 -6 27 -15 27
-20 0 -5 5 -9 11 -9 6 0 28 -14 49 -30 21 -17 42 -30 47 -30 5 0 19 -9 32 -21
24 -23 237 -126 316 -153 28 -10 57 -22 66 -26 9 -5 34 -12 55 -16 22 -3 44
-10 49 -14 6 -4 30 -11 55 -15 24 -4 51 -11 60 -16 18 -11 139 -26 314 -40
187 -16 461 7 627 50 41 11 94 25 119 31 25 7 54 15 65 20 11 4 43 16 70 25
146 52 408 199 540 304 91 73 66 49 282 262 104 103 199 190 212 194 19 6 37
-10 128 -107 137 -145 233 -237 308 -296 33 -25 66 -52 73 -59 50 -49 233
-164 346 -218 75 -36 140 -65 145 -65 5 0 22 -7 37 -15 16 -8 37 -15 46 -15 9
0 19 -4 22 -9 4 -5 25 -12 48 -16 23 -4 49 -11 58 -16 41 -22 248 -58 414 -71
192 -15 437 4 631 48 94 22 238 69 303 99 29 14 57 25 62 25 15 0 172 82 245
128 83 53 235 166 287 214 20 19 52 48 70 64 44 41 168 178 210 234 102 135
152 216 221 355 61 123 67 137 67 151 0 8 4 23 10 34 6 11 14 29 20 40 6 11
10 29 10 39 0 11 4 22 9 25 12 8 25 64 71 299 42 209 33 570 -19 772 -6 22
-13 54 -16 70 -8 43 -26 106 -36 133 -20 50 -32 78 -40 94 -5 10 -9 27 -9 38
0 11 -4 20 -10 20 -5 0 -10 6 -10 13 0 12 -99 218 -109 227 -3 3 -13 21 -22
40 -37 79 -195 275 -339 420 -182 183 -503 385 -755 473 -16 5 -39 13 -50 18
-47 18 -125 39 -180 49 -239 43 -253 45 -470 45 -207 0 -298 -8 -430 -37 -213
-46 -441 -133 -591 -225 -39 -23 -73 -43 -77 -43 -12 0 -155 -100 -227 -158
-41 -34 -156 -142 -254 -242 -148 -149 -183 -179 -200 -174 -23 7 -27 11 -214
194 -73 71 -135 130 -138 130 -3 0 -34 29 -70 65 -36 36 -79 72 -97 81 -18 9
-42 24 -53 33 -12 9 -32 23 -44 31 -12 8 -28 20 -34 25 -37 32 -373 195 -402
195 -8 0 -14 4 -14 9 0 5 -19 11 -42 15 -23 4 -69 16 -103 27 -64 21 -105 31
-250 56 -88 15 -504 30 -516 19z m541 -300 c288 -56 568 -187 795 -369 28 -23
136 -126 242 -231 l192 -190 -217 -218 c-119 -120 -224 -217 -232 -217 -10 1
-9 3 3 6 11 3 16 11 13 19 -3 7 -2 13 2 13 19 -3 22 3 12 21 -13 24 -28 26
-37 4 -3 -9 -15 -26 -27 -38 -12 -13 -47 -51 -80 -85 l-59 -62 -166 163 c-91
90 -188 180 -216 199 -175 124 -356 182 -570 181 -137 0 -245 -19 -353 -63
-535 -213 -775 -833 -519 -1344 48 -97 105 -175 188 -258 140 -138 296 -221
496 -262 88 -18 265 -21 355 -5 138 24 288 87 403 168 28 19 482 466 1010 992
528 526 983 975 1010 997 195 158 447 270 706 314 171 29 432 23 589 -14 368
-87 679 -290 903 -592 127 -172 232 -414 273 -635 22 -116 25 -397 5 -510 -76
-445 -318 -811 -696 -1055 -143 -93 -301 -158 -485 -202 -129 -30 -395 -42
-533 -24 -359 48 -662 207 -951 499 -101 103 -108 112 -95 130 8 11 47 59 88
107 l74 86 -51 52 -52 52 120 120 c66 66 120 118 121 115 5 -32 4 -52 -4 -57
-6 -3 -7 -2 -4 3 3 6 2 16 -2 23 -6 9 -11 10 -15 2 -4 -6 12 -28 35 -50 l43
-39 47 63 c27 35 52 65 56 67 17 6 54 68 48 78 -20 32 24 -5 144 -123 75 -74
154 -147 176 -164 243 -185 593 -186 837 -2 436 327 344 1013 -162 1209 -201
77 -430 58 -617 -51 -44 -25 -301 -275 -1028 -1001 -1085 -1081 -1085 -1081
-1345 -1212 -833 -417 -1817 -152 -2334 629 -296 446 -371 1031 -201 1552 218
664 809 1147 1510 1232 138 17 412 6 555 -23z m770 -1240 c0 -2 -7 -9 -15 -16
-13 -11 -14 -10 -9 4 5 14 24 23 24 12z m-70 -76 c0 -4 -7 -11 -16 -14 -13 -5
-14 -4 -6 7 7 8 8 18 4 22 -4 5 -1 5 6 1 6 -4 12 -11 12 -16z m-50 -50 c0 -5
-2 -10 -4 -10 -3 0 -8 5 -11 10 -3 6 -1 10 4 10 6 0 11 -4 11 -10z m-848 -24
c37 -13 84 -36 105 -52 78 -58 333 -326 333 -349 0 -22 -334 -339 -380 -361
-25 -12 -58 -28 -74 -35 -35 -17 -203 -18 -238 -3 -12 6 -41 19 -63 28 -39 18
-114 71 -127 91 -3 5 -16 21 -27 34 -27 31 -68 117 -76 161 -14 75 -17 142 -6
153 6 6 11 21 11 34 0 13 5 32 10 43 6 11 15 29 20 40 6 11 10 24 10 30 0 6
16 29 36 50 20 22 43 48 50 59 14 19 71 49 154 82 68 26 180 24 262 -5z m3506
15 c19 -11 73 -25 85 -23 4 1 7 -2 7 -7 0 -5 10 -11 23 -15 30 -7 117 -83 117
-102 0 -8 5 -14 10 -14 6 0 10 -7 10 -15 0 -8 5 -15 10 -15 6 0 10 -7 10 -15
0 -8 4 -15 8 -15 9 0 20 -33 42 -122 18 -70 1 -168 -44 -261 -29 -58 -134
-167 -162 -167 -8 0 -14 -4 -14 -10 0 -5 -6 -10 -12 -10 -7 0 -24 -6 -38 -13
-50 -26 -144 -39 -197 -26 -90 21 -153 47 -201 84 -27 20 -138 133 -187 188
-27 32 -69 69 -92 83 -35 20 -43 30 -43 55 0 25 25 55 165 194 161 161 190
183 290 219 46 16 187 21 213 7z m-883 -620 c3 -5 2 -12 -3 -15 -5 -3 -9 1 -9
9 0 17 3 19 12 6z m22 -48 c1 -22 -1 -24 -9 -10 -5 10 -15 15 -21 11 -7 -3 -3
2 7 10 11 9 20 16 20 16 1 0 2 -12 3 -27z m-53 5 c-3 -5 -10 -6 -15 -2 -5 3
-18 0 -27 -8 -15 -12 -16 -11 -4 4 13 16 56 22 46 6z m-59 -68 c10 -11 16 -20
13 -20 -3 0 -13 9 -23 20 -10 11 -16 20 -13 20 3 0 13 -9 23 -20z m-10 -109
c3 -5 0 -13 -6 -17 -8 -5 -9 -3 -4 6 6 10 4 12 -9 7 -10 -4 -15 -3 -11 3 8 13
22 13 30 1z"/>
</g>
</svg>
